<svg xmlns="http://www.w3.org/2000/svg" xmlns:xlink="http://www.w3.org/1999/xlink" width="300" height="294.00048828125" viewBox="0 0 300 294.00048828125" fill="none"><g opacity="1"  transform="translate(0 0.00048828125)"><path d="M0 244L300 244L300 0L0 0L0 244Z"  ></path><g opacity="1"  transform="translate(0 0)"><path id="背景" fill-rule="evenodd" style="fill:#EDF0F4" opacity="0.35" d="M76.71 24.84L85.08 24.84C86.99 24.84 88.81 25.59 90.16 26.94C91.51 28.29 92.26 30.11 92.26 32.01L92.26 32.57C92.26 36.53 89.05 39.75 85.08 39.75L60.13 39.75C55.38 44.85 51.09 50.34 47.28 56.17L35.42 56.17C31.15 56.18 27.69 59.64 27.69 63.91L27.69 64.34C27.69 67.78 29.97 70.81 33.28 71.76L44.2 71.76C49.08 71.77 53.04 75.72 53.04 80.6L53.04 83.36C53.04 88.23 49.08 92.19 44.2 92.19L6.68 92.19C2.76 93.18 0 96.71 0 100.76L0 101.25C0 106.12 3.96 110.08 8.84 110.08L28.27 110.08C27.89 114.01 27.7 117.98 27.69 122C27.69 189.38 83.26 244 151.73 244C206.53 244 253.05 209.05 269.44 160.59L274.09 160.59C275.72 160.58 277.11 159.42 277.42 157.82C277.73 156.22 276.86 154.63 275.35 154.01L269.63 154.01C265.67 154.01 262.46 150.81 262.45 146.85L262.45 146.29C262.45 142.33 265.67 139.11 269.63 139.11L274.56 139.11L274.56 139.02L286.82 139.02C289.96 139.02 292.5 136.48 292.5 133.35C292.5 130.22 289.96 127.67 286.82 127.67L275.63 127.67C275.73 125.8 275.77 123.89 275.76 121.96C275.78 104.53 272 87.32 264.67 71.5L284.53 71.5C293.07 71.5 300 64.58 300 56.04L300 55.18C300 46.99 293.61 40.22 285.42 39.75L215.47 39.75C212.42 39.75 209.94 37.28 209.94 34.23C209.94 31.18 212.42 28.71 215.47 28.71L231.66 28.71L231.25 28.37L239.31 28.37C242.09 28.37 244.76 27.27 246.73 25.3C248.7 23.33 249.8 20.66 249.8 17.88L249.8 17.3C249.8 14.52 248.7 11.85 246.73 9.88C244.76 7.92 242.09 6.81 239.31 6.81L192.69 6.81C179.51 2.29 165.67 -0.01 151.73 0C124.69 -0.06 98.36 8.65 76.71 24.84Z"></path><path id="形状结合" fill-rule="evenodd" fill="url(#linear_0)" opacity="0.27" d="M51.979 208.772C51.979 216.582 77.289 223.272 113.069 225.982C117.309 235.532 139.519 242.822 166.339 242.822C196.149 242.822 220.319 233.822 220.319 222.712C220.319 222.222 220.269 221.732 220.179 221.252C223.779 220.472 227.059 219.672 229.989 218.802C242.219 217.182 250.959 212.882 250.959 207.842C250.959 201.472 237.039 196.302 219.759 196.182C202.079 192.532 176.799 190.242 148.719 190.242C95.279 190.242 51.959 198.492 51.979 208.772Z"></path><path id="路径" fill-rule="evenodd" fill="url(#linear_1)" opacity="1" d="M84.2296 191.553C79.0396 178.133 70.4596 185.573 67.7696 176.643C65.0696 167.723 65.4296 165.283 58.1696 161.903C50.9196 158.523 54.9696 155.133 49.7096 151.163C44.4396 147.193 41.5396 146.693 37.8396 148.433C34.1496 150.183 40.4696 160.413 37.0296 164.313C33.5896 168.203 33.3696 169.423 39.2196 175.363C45.0696 181.313 47.3396 181.363 45.3796 186.793C43.4196 192.233 45.3796 193.983 49.0396 193.763C52.6996 193.543 58.3696 193.523 56.1996 200.953C54.0396 208.383 54.8996 211.013 62.0296 213.313C69.1596 215.623 69.3796 217.773 76.2196 214.573L76.1996 214.593C81.1496 212.253 89.7296 204.793 84.2296 191.553Z"></path><path id="路径" fill-rule="evenodd" fill="url(#linear_2)" opacity="1" d="M79.1675 212.059L48.4275 166.879C48.2775 166.559 48.2775 166.569 47.9675 166.709C47.6575 166.849 47.6575 166.849 47.8075 167.159L78.5475 212.349C78.5875 212.439 78.6575 212.499 78.7375 212.529C78.8275 212.559 78.9175 212.559 78.9975 212.519C79.3075 212.369 79.3075 212.369 79.1675 212.059Z"></path><path id="形状" fill-rule="evenodd" fill="url(#linear_3)" opacity="1" d="M59.5037 170.345C59.5037 170.345 59.9537 170.505 59.6537 170.645L58.9037 182.705C58.5978 182.843 58.4575 182.553 58.3097 182.248L58.3037 182.235L59.1937 170.485C59.1937 170.485 59.3537 170.035 59.5037 170.345ZM72.1002 187.444C72.1002 187.444 72.5502 187.604 72.2402 187.754L71.0302 200.404C70.7279 200.55 70.5873 200.259 70.4414 199.957L70.4302 199.934L71.7902 187.584C71.7902 187.584 71.9502 187.134 72.1002 187.444ZM63.2964 189.679C63.9174 189.393 64.0564 189.679 63.8934 190.153L63.9254 190.153L54.5934 190.398C54.5124 190.436 54.4194 190.441 54.3344 190.41C54.2504 190.379 54.1814 190.316 54.1444 190.234C54.1034 190.152 54.0974 190.057 54.1284 189.971C54.1584 189.884 54.2234 189.814 54.3074 189.777L63.2964 189.679ZM75.2593 206.37C75.2916 206.397 75.2512 206.51 75.1621 206.76L75.1781 206.768L62.3161 206.768C62.0061 206.907 61.8581 206.605 62.1691 206.458C62.0221 206.147 62.3321 206 62.4791 206.311L75.0151 206.45C75.1557 206.383 75.2325 206.347 75.2593 206.37Z"></path><path id="路径" fill-rule="evenodd" fill="url(#linear_4)" opacity="1" d="M90.0828 203.151C89.7428 197.641 93.9328 195.301 91.2628 192.021C88.5828 188.751 85.9528 190.391 86.6028 182.131C87.2528 173.881 82.5928 170.431 79.8628 169.451C77.1328 168.471 75.7728 166.441 73.3228 161.961C70.8728 157.481 66.4828 160.271 66.1228 162.701C65.7628 165.131 68.6728 171.311 66.7428 175.241C64.8128 179.171 68.5628 182.321 71.7328 184.221C74.8928 186.131 72.9728 190.061 71.2228 192.771C69.5928 195.791 65.7028 200.281 68.7028 202.641C71.6928 205.001 76.5228 214.441 83.6328 211.091L83.6228 211.091C87.9528 209.051 90.2428 209.111 90.0828 203.151Z"></path><path id="路径" fill-rule="evenodd" fill="url(#linear_5)" opacity="1" d="M76.3412 176.39C76.3012 176.3 76.2312 176.24 76.1412 176.21C76.0611 176.18 75.9612 176.18 75.8811 176.22C75.8012 176.26 75.7312 176.33 75.7011 176.42C75.6712 176.5 75.6712 176.6 75.7212 176.68L83.7812 210.64C83.8212 210.72 83.8912 210.79 83.9812 210.82C84.0611 210.85 84.1611 210.84 84.2411 210.8C84.5512 210.65 76.3412 176.39 76.3412 176.39Z"></path><path id="形状" fill-rule="evenodd" fill="url(#linear_6)" opacity="1" d="M82.8465 178.975L79.5865 189.585L79.5365 189.605C79.0865 189.445 79.0865 189.445 78.9365 189.135L82.3965 178.815L82.7065 178.665L82.8465 178.975ZM82.6974 203.587L72.8874 198.767L72.5874 198.917L72.7274 199.227L82.8774 203.897C83.1874 203.747 83.0374 203.437 82.6974 203.587Z"></path><path id="路径" fill-rule="evenodd" fill="url(#linear_7)" opacity="1" d="M107.711 216.099C108.391 215.159 108.581 213.959 108.231 212.859C107.551 210.129 106.521 211.499 106.181 213.549C105.841 215.599 106.521 212.519 104.471 211.839C102.421 211.499 104.471 215.249 103.781 215.919C102.761 216.259 101.401 212.499 100.031 214.209C98.6514 215.909 101.731 217.629 104.811 217.629L104.811 217.649C105.971 217.609 107.041 217.039 107.711 216.099Z"></path><path id="路径" fill-rule="evenodd" fill="url(#linear_8)" opacity="1" d="M244.135 201.897C247.205 201.897 248.565 199.848 250.615 197.458C253.015 194.688 250.285 191.947 248.235 190.928C246.185 189.908 249.945 185.807 247.205 185.467C244.135 185.128 245.835 184.447 245.495 182.057C245.155 179.658 243.785 180.337 242.755 180.678C242.075 181.367 242.415 173.488 240.365 174.538C238.315 175.577 239.345 177.268 240.365 179.658C241.395 181.708 238.325 179.318 239.345 181.708C240.365 184.098 238.995 183.077 238.315 185.128C237.635 186.827 240.025 185.798 240.365 186.488C240.705 187.167 238.645 187.508 238.315 188.538C237.975 189.568 240.365 189.577 240.365 190.928C240.365 192.288 236.605 191.938 236.605 195.008C236.945 197.758 240.705 201.848 244.135 201.848L244.135 201.897Z"></path><path id="路径" fill-rule="evenodd" fill="url(#linear_9)" opacity="1" d="M244.367 201.739C244.437 201.679 244.467 201.589 244.467 201.499L242.417 182.719C242.417 182.629 242.387 182.539 242.327 182.479C242.257 182.409 242.167 182.379 242.077 182.379C241.987 182.379 241.897 182.409 241.837 182.479C241.767 182.539 241.737 182.629 241.737 182.719L243.787 201.499C243.787 201.589 243.817 201.679 243.887 201.749C243.947 201.809 244.037 201.849 244.127 201.849C244.217 201.849 244.307 201.809 244.367 201.739Z"></path><path id="形状" fill-rule="evenodd" fill="url(#linear_10)" opacity="1" d="M246.179 187.156L246.179 187.496L243.099 191.936L242.759 191.596L245.839 187.156L246.179 187.156ZM239.34 194.325L244.13 198.085C244.13 198.435 244.13 198.435 243.79 198.765L239 194.655L239 194.325L239.34 194.325Z"></path><path id="路径" fill-rule="evenodd" fill="url(#linear_11)" opacity="1" d="M233.53 200.819C236.95 198.769 236.26 197.059 234.55 197.749C232.85 198.429 229.77 202.189 229.09 201.159C228.4 200.129 231.14 198.089 229.43 196.039C227.72 193.989 228.74 198.429 228.06 198.429C227.72 198.429 227.04 196.039 226.35 197.059C225.66 198.079 227.38 201.139 227.72 201.499C228.4 201.849 227.38 201.849 225.66 201.159C223.96 200.139 223.61 202.189 225.33 202.869C227.04 203.539 228.74 201.499 228.74 201.499C228.74 201.499 230.11 202.529 233.53 200.819Z"></path><path id="椭圆形" fill-rule="evenodd" fill="url(#linear_12)" opacity="0.41" d="M127.585 196.742C115.845 196.742 106.335 198.822 106.335 201.392C106.335 203.952 115.845 206.032 127.585 206.032C139.315 206.032 148.825 203.952 148.825 201.392C148.825 198.822 139.315 196.742 127.585 196.742Z"></path><path id="形状" fill-rule="evenodd" fill="url(#linear_13)" opacity="1" d="M103.134 69.7041C101.324 69.7041 99.8638 71.1641 99.8638 72.9741L99.8638 192.004C99.8638 192.414 99.9338 192.814 100.074 193.194C100.494 194.264 101.454 195.044 102.594 195.234C102.774 195.274 102.954 195.294 103.134 195.284L193.664 195.284C195.024 195.294 196.244 194.454 196.724 193.194C196.874 192.814 196.954 192.414 196.954 192.004L196.954 72.9741C196.954 72.1041 196.604 71.2741 195.994 70.6541C195.374 70.0441 194.534 69.7041 193.664 69.7041L103.134 69.7041ZM184.54 89.1824L112.26 89.1824L112.27 86.4424L184.54 86.4424L184.54 89.1824ZM169.46 108.058L112.26 108.058L112.26 105.328L169.46 105.328L169.46 108.058ZM188.997 131.899C188.997 122.509 181.377 114.899 171.987 114.889C165.097 114.889 158.887 119.029 156.247 125.389C153.607 131.749 155.067 139.069 159.937 143.939C164.807 148.799 172.137 150.259 178.497 147.619C184.857 144.989 189.007 138.779 189.007 131.899L188.997 131.899ZM112.26 126.447L151.09 126.447L151.09 123.706L112.26 123.706L112.26 126.447ZM112.26 145.812L140.15 145.812L140.15 143.082L112.26 143.082L112.26 145.812Z"></path><path id="路径" fill-rule="evenodd" fill="url(#linear_14)" opacity="1" d="M200.36 195.289C215.74 195.289 214.15 176.729 214.15 176.729L116.67 176.729C116.67 193.949 102.83 195.289 102.83 195.289L200.36 195.289Z"></path><path id="矩形" fill-rule="evenodd" fill="url(#linear_15)" opacity="1" d="M130.534 73.7645L164.614 73.7645C165.704 73.7645 166.594 72.8745 166.594 71.7845L166.594 67.8545C166.594 66.7645 165.704 65.8745 164.614 65.8745L130.534 65.8745C129.444 65.8745 128.554 66.7645 128.554 67.8545L128.554 71.7845C128.554 72.8745 129.444 73.7645 130.534 73.7645Z"></path><path id="形状" fill-rule="evenodd" fill="url(#linear_16)" opacity="1" d="M172.022 146.058C164.112 146.058 157.702 139.648 157.702 131.738C157.702 123.838 164.112 117.428 172.022 117.428C179.942 117.428 186.352 123.838 186.352 131.738C186.352 139.648 179.942 146.058 172.022 146.058ZM174.09 131.74L178.38 127.45C178.8 127.1 178.97 126.54 178.84 126C178.71 125.47 178.3 125.06 177.77 124.93C177.23 124.8 176.67 124.98 176.32 125.4L172.03 129.68L167.74 125.4C167.37 125.03 166.83 124.89 166.33 125.02C165.83 125.15 165.43 125.55 165.3 126.05C165.17 126.55 165.31 127.09 165.68 127.45L169.97 131.74L165.68 136.03C165.11 136.6 165.11 137.52 165.68 138.08C166.25 138.65 167.17 138.65 167.74 138.08L172.03 133.8L176.32 138.08C176.67 138.5 177.23 138.68 177.77 138.55C178.3 138.42 178.71 138.01 178.84 137.48C178.97 136.95 178.8 136.39 178.38 136.03L174.09 131.74Z"></path><path id="路径" fill-rule="evenodd" style="fill:#E2AD96" opacity="1" d="M127.091 162.956C127.091 162.956 127.761 163.896 128.431 163.896C129.101 163.896 129.781 162.956 129.781 162.956L129.781 159.216L127.091 159.216L127.091 162.956Z"></path><path id="路径" fill-rule="evenodd" style="fill:#EFBA9E" opacity="1" d="M124.245 158.273C125.265 159.623 127.605 160.113 128.195 160.193C128.785 160.273 131.985 159.333 132.595 158.453C133.215 157.563 133.535 152.883 133.535 152.883L128.985 149.083L123.435 152.403C123.435 152.403 123.235 156.913 124.245 158.273Z"></path><path id="路径" fill-rule="evenodd" style="fill:#131322" opacity="1" d="M123.158 150.919C121.948 152.679 122.828 153.299 124.318 153.019C125.798 152.739 127.168 151.729 128.658 151.459C130.158 151.189 133.338 155.999 134.698 154.989C135.518 154.339 133.878 150.499 132.868 149.149C131.858 147.789 128.728 147.589 128.728 147.589C128.728 147.589 124.248 148.409 123.158 150.919Z"></path><path id="路径" fill-rule="evenodd" style="fill:#F7BC5C" opacity="1" d="M114.63 186.267L130.8 194.917L143.49 187.347C143.49 187.347 134.93 161.757 132.71 161.037C131.7 160.707 130.77 161.497 128.27 161.397C125.23 161.277 124.73 161.037 124.73 161.037L114.63 186.267Z"></path><path id="路径" fill-rule="evenodd" fill="url(#linear_17)" opacity="1" d="M120.547 202.485L135.557 202.375L139.337 206.155C139.337 206.155 151.597 191.985 148.797 188.195C143.207 180.745 133.427 191.735 129.887 193.155C126.337 194.575 120.897 187.955 115.937 186.305C110.477 184.485 108.367 185.595 107.667 189.855C107.707 196.885 117.277 205.755 117.277 205.755L120.547 202.485Z"></path><path id="路径" fill-rule="evenodd" style="fill:#EFBA9E" opacity="1" d="M122.474 209.283L124.844 209.283L119.634 200.783L117.514 204.323L122.474 209.283Z"></path><path id="路径" fill-rule="evenodd" style="fill:#EFBA9E" opacity="1" d="M136.663 200.546L131.463 209.046L133.823 209.046L138.783 204.086L136.663 200.546Z"></path><path id="路径" fill-rule="evenodd" style="fill:#1B1718" opacity="1" d="M118.701 212.35C118.221 213.3 118.461 213.54 118.941 213.77C119.411 214.01 124.371 211.64 124.841 210.94C125.321 210.24 125.321 210.23 125.321 209.76C125.321 209.28 123.901 207.74 123.901 207.74L122.711 208.34C122.711 208.34 119.171 211.41 118.701 212.35Z"></path><path id="路径" fill-rule="evenodd" style="fill:#1B1718" opacity="1" d="M132.148 207.74C132.148 207.74 130.728 209.28 130.728 209.76C130.728 210.23 130.728 210.24 131.198 210.94C131.678 211.64 136.638 214.01 137.108 213.77C137.588 213.54 137.818 213.3 137.348 212.35C136.868 211.41 133.338 208.34 133.338 208.34L132.148 207.74Z"></path><path id="路径" fill-rule="evenodd" style="fill:#EFBA9E" opacity="1" d="M108.142 198.888L108.792 200.188C108.792 200.188 110.732 201.468 110.942 201.258C111.162 201.048 110.722 200.398 110.722 200.398L110.722 196.958L110.942 196.728C110.942 196.728 111.802 199.108 112.232 199.108C112.672 199.108 112.232 197.168 112.232 196.728C111.822 195.598 111.322 194.488 110.752 193.418L108.142 193.508L108.142 198.888Z"></path><path id="路径" fill-rule="evenodd" fill="url(#linear_18)" opacity="1" d="M119.324 162.836C114.634 165.746 107.414 193.506 107.414 193.506L111.744 194.586L122.924 165.746L125.444 161.036C125.444 161.036 122.564 159.946 119.324 162.836Z"></path><path id="路径" fill-rule="evenodd" style="fill:#EFBA9E" opacity="1" d="M145.927 193.418C145.347 194.488 144.857 195.598 144.437 196.728C144.437 197.168 144.007 199.108 144.437 199.108C144.877 199.108 145.737 196.728 145.737 196.728L145.947 196.958L145.947 200.398C145.947 200.398 145.517 201.048 145.737 201.258C145.957 201.468 147.887 200.188 147.887 200.188L148.537 198.888L148.537 193.508L145.927 193.418Z"></path><path id="路径" fill-rule="evenodd" fill="url(#linear_19)" opacity="1" d="M133.746 165.746L144.926 194.586L149.256 193.506C149.256 193.506 142.046 165.746 137.356 162.836C134.106 159.946 131.226 161.036 131.226 161.036L133.746 165.746Z"></path><path id="椭圆形" fill-rule="evenodd" fill="url(#linear_20)" opacity="0.54" d="M75.6966 83.9028C71.8566 83.9028 68.7466 87.0128 68.7466 90.8428C68.7466 94.6728 71.8566 97.7828 75.6966 97.7828C79.5266 97.7828 82.6366 94.6728 82.6366 90.8428C82.6366 87.0128 79.5266 83.9028 75.6966 83.9028Z"></path><path id="椭圆形" fill-rule="evenodd" fill="url(#linear_21)" opacity="0.54" d="M186.827 27.5649C184.797 27.5649 183.147 29.2049 183.147 31.2349C183.147 33.2649 184.797 34.9149 186.827 34.9149C188.857 34.9149 190.497 33.2649 190.497 31.2349C190.497 29.2049 188.857 27.5649 186.827 27.5649Z"></path><path id="椭圆形" fill-rule="evenodd" fill="url(#linear_22)" opacity="0.54" d="M231.771 131.259C226.581 131.259 222.371 135.459 222.371 140.649C222.371 145.839 226.581 150.039 231.771 150.039C236.961 150.039 241.161 145.839 241.161 140.649C241.161 135.459 236.961 131.259 231.771 131.259Z"></path></g><g opacity="1" transform="translate(104 274)"><a xlink:href="https://" xlink:title="跳转" target="_blank"><text><tspan x="11" y="16.240000000000002" font-size="14" line-height="0" fill="#555555" opacity="1" font-family="SourceHanSansCN-Regular" font-weight="Regular" letter-spacing="0" >暂无数据</tspan></text></a></g></g><defs><linearGradient id="linear_0" x1="-0.009218397854493035%" y1="49.92236024844715%" x2="99.99690065067948%" y2="49.92236024844715%" gradientUnits="objectBoundingBox"><stop offset="0" stop-color="#F9E7A8" stop-opacity="1" /><stop offset="1" stop-color="#F5A623" stop-opacity="1" /></linearGradient><linearGradient id="linear_1" x1="16.36729788380748%" y1="59.13062058563292%" x2="79.55825313345237%" y2="36.88158329274449%" gradientUnits="objectBoundingBox"><stop offset="0" stop-color="#C6DFFE" stop-opacity="1" /><stop offset="1" stop-color="#72B1FE" stop-opacity="1" /></linearGradient><linearGradient id="linear_2" x1="-0.016726413259454433%" y1="49.99282336655836%" x2="99.99082443168861%" y2="49.99282336655836%" gradientUnits="objectBoundingBox"><stop offset="0" stop-color="#C6DFFE" stop-opacity="1" /><stop offset="1" stop-color="#72B1FE" stop-opacity="1" /></linearGradient><linearGradient id="linear_3" x1="-0.022905712615879745%" y1="50.000285123534624%" x2="100.14381268516586%" y2="50.000285123534624%" gradientUnits="objectBoundingBox"><stop offset="0" stop-color="#C6DFFE" stop-opacity="1" /><stop offset="1" stop-color="#72B1FE" stop-opacity="1" /></linearGradient><linearGradient id="linear_4" x1="-544.8530804823023%" y1="75.40720264416066%" x2="-439.7072833031293%" y2="75.40720264416066%" gradientUnits="objectBoundingBox"><stop offset="0" stop-color="#C6DFFE" stop-opacity="1" /><stop offset="1" stop-color="#72B1FE" stop-opacity="1" /></linearGradient><linearGradient id="linear_5" x1="-1.0583490771064428%" y1="50.00765763760563%" x2="100.97849891178477%" y2="50.00765763760563%" gradientUnits="objectBoundingBox"><stop offset="0" stop-color="#C6DFFE" stop-opacity="1" /><stop offset="1" stop-color="#72B1FE" stop-opacity="1" /></linearGradient><linearGradient id="linear_6" x1="0.08258118598767021%" y1="50.2588996763754%" x2="100.00986387526451%" y2="50.2588996763754%" gradientUnits="objectBoundingBox"><stop offset="0" stop-color="#C6DFFE" stop-opacity="1" /><stop offset="1" stop-color="#72B1FE" stop-opacity="1" /></linearGradient><linearGradient id="linear_7" x1="0.0174360020842362%" y1="49.963803889499594%" x2="99.83015529538494%" y2="49.963803889499594%" gradientUnits="objectBoundingBox"><stop offset="0" stop-color="#C6DFFE" stop-opacity="1" /><stop offset="1" stop-color="#72B1FE" stop-opacity="1" /></linearGradient><linearGradient id="linear_8" x1="-0.002145052069664563%" y1="49.876838643863536%" x2="99.98869257464885%" y2="49.876838643863536%" gradientUnits="objectBoundingBox"><stop offset="0" stop-color="#C6DFFE" stop-opacity="1" /><stop offset="1" stop-color="#72B1FE" stop-opacity="1" /></linearGradient><linearGradient id="linear_9" x1="0.013261215507186263%" y1="50.00002729912263%" x2="99.98683107712593%" y2="50.00002729912263%" gradientUnits="objectBoundingBox"><stop offset="0" stop-color="#C6DFFE" stop-opacity="1" /><stop offset="1" stop-color="#72B1FE" stop-opacity="1" /></linearGradient><linearGradient id="linear_10" x1="-0.02606078895990125%" y1="50.0000000000001%" x2="100.02606078896055%" y2="50.0000000000001%" gradientUnits="objectBoundingBox"><stop offset="0" stop-color="#C6DFFE" stop-opacity="1" /><stop offset="1" stop-color="#72B1FE" stop-opacity="1" /></linearGradient><linearGradient id="linear_11" x1="0.004954390797392725%" y1="49.960976073031006%" x2="100.01436719060479%" y2="49.960976073031006%" gradientUnits="objectBoundingBox"><stop offset="0" stop-color="#C6DFFE" stop-opacity="1" /><stop offset="1" stop-color="#72B1FE" stop-opacity="1" /></linearGradient><linearGradient id="linear_12" x1="-0.002071560182673503%" y1="49.99999999999998%" x2="100.00207156018269%" y2="49.99999999999998%" gradientUnits="objectBoundingBox"><stop offset="0" stop-color="#F9E7A8" stop-opacity="1" /><stop offset="1" stop-color="#F5A623" stop-opacity="1" /></linearGradient><linearGradient id="linear_13" x1="49.987348231237064%" y1="99.99992335122381%" x2="50.987348231237064%" y2="0.000032595216928779324%" gradientUnits="objectBoundingBox"><stop offset="0" stop-color="#C6DFFE" stop-opacity="1" /><stop offset="1" stop-color="#72B1FE" stop-opacity="1" /></linearGradient><linearGradient id="linear_14" x1="49.9975317378049%" y1="100%" x2="50.9975317378049%" y2="-1.2504051663178189e-13%" gradientUnits="objectBoundingBox"><stop offset="0" stop-color="#C6DFFE" stop-opacity="1" /><stop offset="1" stop-color="#72B1FE" stop-opacity="1" /></linearGradient><linearGradient id="linear_15" x1="0.0022383530669953236%" y1="49.999999999999986%" x2="99.99776164693303%" y2="49.999999999999986%" gradientUnits="objectBoundingBox"><stop offset="0" stop-color="#C6DFFE" stop-opacity="1" /><stop offset="1" stop-color="#72B1FE" stop-opacity="1" /></linearGradient><linearGradient id="linear_16" x1="0.0013048718209670899%" y1="50%" x2="99.99869512817904%" y2="50%" gradientUnits="objectBoundingBox"><stop offset="0" stop-color="#BFD4FA" stop-opacity="1" /><stop offset="1" stop-color="#5792F0" stop-opacity="1" /></linearGradient><linearGradient id="linear_17" x1="0.10076896708919288%" y1="49.72622819062563%" x2="100.11591012184229%" y2="49.72622819062563%" gradientUnits="objectBoundingBox"><stop offset="0" stop-color="#1A1114" stop-opacity="1" /><stop offset="0.25" stop-color="#30231E" stop-opacity="1" /><stop offset="0.5" stop-color="#4A372A" stop-opacity="1" /><stop offset="0.59" stop-color="#5A372A" stop-opacity="1" /><stop offset="0.66" stop-color="#60372A" stop-opacity="1" /><stop offset="0.98" stop-color="#98372A" stop-opacity="1" /></linearGradient><linearGradient id="linear_18" x1="100.01243399299133%" y1="49.9462968654936%" x2="-0.012433992992226823%" y2="49.9462968654936%" gradientUnits="objectBoundingBox"><stop offset="0" stop-color="#F3835D" stop-opacity="1" /><stop offset="1" stop-color="#FFC644" stop-opacity="1" /></linearGradient><linearGradient id="linear_19" x1="-0.012433992991444832%" y1="49.9462968654936%" x2="100.01243399299145%" y2="49.9462968654936%" gradientUnits="objectBoundingBox"><stop offset="0" stop-color="#F3835D" stop-opacity="1" /><stop offset="1" stop-color="#FFC644" stop-opacity="1" /></linearGradient><linearGradient id="linear_20" x1="-0.0055329651474796925%" y1="50%" x2="100.00553296514747%" y2="50%" gradientUnits="objectBoundingBox"><stop offset="0" stop-color="#EAF2FD" stop-opacity="1" /><stop offset="1" stop-color="#C4DFFD" stop-opacity="1" /></linearGradient><linearGradient id="linear_21" x1="-0.02954522587494494%" y1="50%" x2="100.02954522587495%" y2="50%" gradientUnits="objectBoundingBox"><stop offset="0" stop-color="#EAF2FD" stop-opacity="1" /><stop offset="1" stop-color="#C4DFFD" stop-opacity="1" /></linearGradient><linearGradient id="linear_22" x1="-0.01179481068051508%" y1="50%" x2="100.01179481068053%" y2="50%" gradientUnits="objectBoundingBox"><stop offset="0" stop-color="#EAF2FD" stop-opacity="1" /><stop offset="1" stop-color="#C4DFFD" stop-opacity="1" /></linearGradient></defs></svg>